<svg xmlns="http://www.w3.org/2000/svg" version="1.1" xmlns:xlink="http://www.w3.org/1999/xlink" xmlns:svgjs="http://svgjs.dev/svgjs" width="2000" height="2250" viewBox="0 0 2000 2250"><g transform="matrix(1,0,0,1,0.0022017081398644223,0)"><svg viewBox="0 0 320 360" data-background-color="#ed1703" preserveAspectRatio="xMidYMid meet" height="2250" width="2000" xmlns="http://www.w3.org/2000/svg" xmlns:xlink="http://www.w3.org/1999/xlink"><g id="tight-bounds" transform="matrix(1,0,0,1,0.00010353528136874957,0)"><svg viewBox="0 0 320 360" height="360" width="320"><g><svg></svg></g><g><svg viewBox="0 0 320 360" height="360" width="320"><g><path xmlns="http://www.w3.org/2000/svg" d="M307.925 179.999l6.575-11.387c11.322-19.607 4.604-44.679-15.003-56.001l-11.387-6.575v-13.151c0-22.639-18.354-40.994-40.994-40.994h-13.151l-6.575-11.387c-11.322-19.607-36.393-26.325-56.001-15.003l-11.39 6.572-11.387-6.576c-19.607-11.318-44.679-4.6-56.001 15.007l-6.575 11.387h-13.151c-22.639 0-40.994 18.354-40.994 40.994v13.151l-11.387 6.575c-19.607 11.322-26.325 36.393-15.003 56.001l6.572 11.387-6.576 11.387c-11.318 19.607-4.6 44.679 15.007 56l11.387 6.576v13.15c0 22.639 18.354 40.994 40.994 40.994h13.151l6.575 11.387c11.322 19.607 36.393 26.325 56.001 15.003l11.387-6.571 11.387 6.575c19.607 11.322 44.679 4.604 56-15.003l6.576-11.387h13.15c22.639 0 40.994-18.354 40.994-40.994v-13.151l11.387-6.575c19.607-11.322 26.325-36.393 15.003-56.001zM297.702 115.716c8.655 4.996 14.842 13.062 17.428 22.713 2.586 9.65 1.261 19.734-3.735 28.384l-5.538 9.596-17.747-30.74v-35.494zM251.155 271.155l-57.791 33.365h-66.731l-57.791-33.365-33.365-57.791v-66.731l33.365-57.791 57.791-33.365h66.731l57.791 33.365 33.365 57.791v66.731zM284.517 220.539v31.351l-27.151 15.676zM247.566 277.366l-15.676 27.151h-31.351zM187.15 308.106l-27.151 15.676-27.151-15.676zM119.459 304.517h-31.352l-15.676-27.151zM62.632 267.566l-27.151-15.676v-31.351zM31.891 207.15l-15.675-27.151 15.675-27.151zM35.481 139.459v-31.352l27.151-15.676zM72.431 82.632l15.676-27.151h31.352zM132.848 51.891l27.151-15.675 27.151 15.675zM200.539 55.481h31.351l15.676 27.151zM257.366 92.431l27.151 15.676v31.352zM288.106 152.848l15.676 27.151-15.676 27.151zM247.112 55.481c9.992 0 19.384 3.889 26.452 10.956 7.063 7.063 10.956 16.46 10.957 26.452v11.079l-30.741-17.747-17.747-30.74zM173.18 28.606c8.655-4.996 18.735-6.322 28.385-3.735 9.65 2.586 17.716 8.777 22.712 17.428l5.538 9.596h-35.494l-30.741-17.747zM95.716 42.295c4.996-8.655 13.062-14.842 22.713-17.428 9.65-2.586 19.734-1.261 28.384 3.736l9.596 5.537-30.74 17.747h-35.494zM35.481 92.885c0-9.992 3.889-19.384 10.956-26.452 7.063-7.063 16.46-10.956 26.452-10.956h11.079l-17.747 30.74-30.74 17.747zM8.606 166.817c-4.996-8.655-6.322-18.735-3.735-28.385 2.586-9.65 8.777-17.716 17.428-22.712l9.596-5.538v35.495l-17.747 30.74zM22.295 244.281c-8.655-4.996-14.842-13.062-17.428-22.712-2.586-9.65-1.261-19.734 3.736-28.385l5.537-9.596 17.747 30.74v35.495zM72.885 304.517c-9.992 0-19.384-3.889-26.452-10.957-7.063-7.063-10.956-16.46-10.956-26.451v-11.08l30.74 17.747 17.747 30.741zM146.817 331.391c-8.655 4.996-18.735 6.322-28.385 3.735-9.65-2.586-17.716-8.777-22.712-17.428l-5.538-9.596h35.495l30.74 17.747zM224.281 317.702c-4.996 8.655-13.062 14.842-22.712 17.428-9.65 2.586-19.734 1.261-28.385-3.735l-9.596-5.538 30.74-17.747h35.495zM284.517 267.112c0 9.992-3.889 19.384-10.957 26.452-7.063 7.063-16.46 10.956-26.451 10.957h-11.08l17.747-30.741 30.741-17.747zM315.13 221.565c-2.586 9.65-8.777 17.716-17.428 22.712l-9.596 5.538v-35.494l17.747-30.741 5.538 9.596c4.996 8.658 6.326 18.739 3.739 28.389z" fill="#ffffff" fill-rule="nonzero" stroke="none" stroke-width="1" stroke-linecap="butt" stroke-linejoin="miter" stroke-miterlimit="10" stroke-dasharray="" stroke-dashoffset="0" font-family="none" font-weight="none" font-size="none" text-anchor="none" style="mix-blend-mode: normal" data-fill-palette-color="tertiary"></path></g><g transform="matrix(1,0,0,1,69.60979190751445,90)"><svg viewBox="0 0 180.7804161849711 180" height="180" width="180.7804161849711"><g><svg viewBox="0 0 180.7804161849711 180" height="180" width="180.7804161849711"><g><svg viewBox="0 0 180.7804161849711 180" height="180" width="180.7804161849711"><g id="textblocktransform"><svg viewBox="0 0 180.7804161849711 180" height="180" width="180.7804161849711" id="textblock"><g><svg viewBox="0 0 180.7804161849711 180" height="180" width="180.7804161849711"><path d="M180.357 38.607C179.507 19.923 177.085 14.728 177.085 14.728 169.649-4.516 160.368-0.368 152.03 2.397 137.31 2.509 122.65 6.62 107.964 8.824 77.138 9.161 46.049 3.63 15.377 17.27 12.496 21.455-2.989 18.092 0.512 40.998 1.43 50.527 4.779 61.102 4.677 69.846 5.136 71.378 5.773 67.866 6.045 70.07 6.997 76.012 8.552 73.209 9.827 76.722 8.051 86.101 9.326 93.911 10.541 102.095 8.399 104.225 5.654 103.216 4.422 110.278 4.294 115.398 3.606 114.426 2.85 114.202 2.297 114.052 1.184 114.613 1.371 116.22 2.008 121.713-0.728 124.889 0.988 130.27-0.193 136.099 1.804 141.144 1.532 147.459 1.498 148.73 1.685 149.813 1.983 150.112 3.3 151.719 1.379 154.858 1.583 158.258 15.097 181.501 29.757 165.433 43.602 176.12 47.197 168.647 44.494 178.773 45.93 177.204 47.052 175.373 47.868 182.959 49.135 178.661 49.33 177.428 49.033 174.514 49.729 175.074 50.095 175.373 50.418 175.298 50.469 173.579 50.545 171.001 49.874 172.608 49.695 171.263 51.625 164.462 51.149 180.642 52.959 179.969 52.874 177.989 52.347 175.149 53.426 175.522 54.497 172.682 54.531 170.328 55.483 176.718 55.517 178.101 55.687 179.072 55.959 179.745 58.934 172.795 61.891 182.211 65.01 179.072 66.923 175.635 68.758 180.941 70.696 179.633 71.376 178.587 72.065 176.718 72.719 179.857 80.733 180.53 89.275 177.727 96.873 179.969 117.177 175.784 138.874 181.688 160.283 176.158 165.331 174.028 170.575 171.001 175.496 168.572 175.496 168.572 179.482 161.921 179.482 132.026S180.332 105.869 180.459 82.065C180.587 58.262 181.182 57.29 180.332 38.607Z" opacity="1" fill="#ffffff" data-fill-palette-color="tertiary"></path><g transform="matrix(1,0,0,1,27.072000000000003,19.1)"><svg width="126.6364161849711" viewBox="1.850000023841858 -34.29999923706055 30.899999618530273 34.599998474121094" height="141.8" data-palette-color="#ed1703"><path d="M17.65-34.3Q21.6-34.3 24.45-33.1 27.3-31.9 29.15-29.7 31-27.5 31.88-24.33 32.75-21.15 32.75-17.2L32.75-17.2Q32.75-13.3 31.78-10.08 30.8-6.85 28.85-4.55 26.9-2.25 23.95-0.98 21 0.3 17 0.3L17 0.3Q13.05 0.3 10.18-0.83 7.3-1.95 5.45-4.13 3.6-6.3 2.73-9.4 1.85-12.5 1.85-16.5L1.85-16.5Q1.85-20.4 2.83-23.68 3.8-26.95 5.75-29.33 7.7-31.7 10.68-33 13.65-34.3 17.65-34.3L17.65-34.3ZM16.95-28.45Q13.7-28.45 12.23-25.43 10.75-22.4 10.75-17.05L10.75-17.05Q10.75-14.5 11.08-12.4 11.4-10.3 12.18-8.78 12.95-7.25 14.3-6.4 15.65-5.55 17.7-5.55L17.7-5.55Q20.95-5.55 22.4-8.45 23.85-11.35 23.85-16.7L23.85-16.7Q23.85-19.25 23.53-21.4 23.2-23.55 22.43-25.13 21.65-26.7 20.3-27.58 18.95-28.45 16.95-28.45L16.95-28.45Z" opacity="1" transform="matrix(1,0,0,1,0,0)" fill="#ed1703" class="wordmark-text-0" data-fill-palette-color="quaternary" id="text-0"></path></svg></g></svg></g></svg></g></svg></g><g></g></svg></g></svg></g></svg></g><defs></defs></svg><rect width="320" height="360" fill="none" stroke="none" visibility="hidden"></rect></g></svg></g></svg>